<?xml version="1.0" encoding="UTF-8" standalone="no"?>
<!DOCTYPE svg PUBLIC "-//W3C//DTD SVG 1.1//EN" "http://www.w3.org/Graphics/SVG/1.1/DTD/svg11.dtd">
<svg width="100%" height="100%" viewBox="0 0 315 91" version="1.1" xmlns="http://www.w3.org/2000/svg" xmlns:xlink="http://www.w3.org/1999/xlink" xml:space="preserve" xmlns:serif="http://www.serif.com/" style="fill-rule:evenodd;clip-rule:evenodd;stroke-linejoin:round;stroke-miterlimit:2;">
    <g>
        <path d="M299.729,84.82c-0.23,0.288 -0.526,0.517 -0.861,0.669c-0.337,0.152 -0.708,0.229 -1.112,0.229c-0.543,-0 -1.033,-0.116 -1.471,-0.35c-0.439,-0.233 -0.94,-0.645 -1.504,-1.236c-0.66,-0.084 -1.25,-0.296 -1.768,-0.637c-0.509,-0.33 -0.926,-0.785 -1.211,-1.32c-0.289,-0.539 -0.433,-1.136 -0.433,-1.79c-0,-0.717 0.172,-1.362 0.517,-1.936c0.344,-0.575 0.82,-1.025 1.43,-1.352c0.608,-0.327 1.292,-0.491 2.05,-0.491c0.759,0 1.44,0.164 2.046,0.491c0.605,0.327 1.082,0.777 1.43,1.352c0.348,0.574 0.522,1.219 0.522,1.936c-0,0.849 -0.239,1.593 -0.716,2.233c-0.476,0.64 -1.108,1.086 -1.894,1.336c0.174,0.181 0.343,0.312 0.507,0.391c0.163,0.08 0.339,0.121 0.526,0.121c0.453,-0 0.849,-0.181 1.19,-0.543l0.752,0.897Zm-102.183,-1.142c-0.603,-0.324 -1.075,-0.773 -1.42,-1.347c-0.344,-0.574 -0.516,-1.223 -0.516,-1.946c-0,-0.724 0.172,-1.373 0.517,-1.947c0.344,-0.574 0.817,-1.023 1.419,-1.346c0.601,-0.324 1.278,-0.486 2.03,-0.486c0.632,0 1.205,0.112 1.717,0.334c0.511,0.223 0.941,0.543 1.289,0.961l-1.086,1.002c-0.494,-0.571 -1.106,-0.856 -1.836,-0.856c-0.453,-0 -0.856,0.099 -1.211,0.297c-0.35,0.193 -0.638,0.481 -0.83,0.83c-0.198,0.355 -0.298,0.758 -0.298,1.211c0,0.452 0.1,0.855 0.298,1.21c0.193,0.35 0.48,0.638 0.83,0.83c0.355,0.198 0.758,0.298 1.211,0.298c0.73,-0 1.342,-0.289 1.836,-0.867l1.086,1.002c-0.347,0.424 -0.791,0.757 -1.295,0.971c-0.514,0.223 -1.089,0.334 -1.722,0.334c-0.744,-0 -1.418,-0.162 -2.019,-0.485Zm-70.46,0.25c-0.54,-0.156 -0.973,-0.36 -1.3,-0.611l0.575,-1.273c0.313,0.23 0.685,0.414 1.116,0.554c0.432,0.139 0.863,0.208 1.294,0.208c0.48,0 0.835,-0.071 1.065,-0.214c0.23,-0.142 0.344,-0.332 0.344,-0.569c0,-0.174 -0.068,-0.318 -0.203,-0.433c-0.136,-0.115 -0.31,-0.207 -0.522,-0.276c-0.212,-0.07 -0.499,-0.146 -0.861,-0.23c-0.557,-0.132 -1.012,-0.264 -1.368,-0.397c-0.353,-0.131 -0.667,-0.35 -0.913,-0.636c-0.254,-0.292 -0.381,-0.682 -0.381,-1.169c0,-0.424 0.115,-0.809 0.345,-1.154c0.229,-0.344 0.575,-0.617 1.038,-0.819c0.463,-0.201 1.028,-0.303 1.696,-0.303c0.466,0 0.922,0.056 1.368,0.168c0.445,0.111 0.835,0.271 1.169,0.48l-0.522,1.284c-0.675,-0.383 -1.351,-0.575 -2.025,-0.575c-0.473,0 -0.823,0.077 -1.049,0.23c-0.226,0.153 -0.339,0.355 -0.339,0.606c-0,0.25 0.13,0.436 0.391,0.558c0.261,0.121 0.659,0.242 1.195,0.36c0.557,0.132 1.012,0.264 1.368,0.396c0.351,0.13 0.665,0.345 0.913,0.626c0.254,0.286 0.381,0.672 0.381,1.159c-0,0.418 -0.117,0.799 -0.35,1.143c-0.233,0.344 -0.582,0.618 -1.049,0.819c-0.466,0.202 -1.033,0.303 -1.701,0.303c-0.578,-0 -1.136,-0.078 -1.675,-0.235Zm-111.686,0c-0.539,-0.156 -0.973,-0.36 -1.3,-0.611l0.574,-1.273c0.313,0.23 0.685,0.414 1.117,0.554c0.431,0.139 0.862,0.208 1.294,0.208c0.481,0 0.835,-0.071 1.065,-0.214c0.229,-0.142 0.344,-0.332 0.344,-0.569c0,-0.174 -0.067,-0.318 -0.203,-0.433c-0.136,-0.115 -0.31,-0.207 -0.522,-0.276c-0.213,-0.07 -0.499,-0.146 -0.861,-0.23c-0.557,-0.132 -1.013,-0.264 -1.367,-0.397c-0.354,-0.131 -0.668,-0.35 -0.913,-0.636c-0.255,-0.292 -0.381,-0.682 -0.381,-1.169c-0,-0.424 0.114,-0.809 0.344,-1.154c0.23,-0.344 0.576,-0.617 1.038,-0.819c0.463,-0.201 1.029,-0.303 1.696,-0.303c0.466,0 0.922,0.056 1.367,0.168c0.446,0.111 0.836,0.271 1.17,0.48l-0.522,1.284c-0.675,-0.383 -1.35,-0.575 -2.025,-0.575c-0.473,0 -0.823,0.077 -1.049,0.23c-0.226,0.153 -0.339,0.355 -0.339,0.606c-0,0.25 0.131,0.436 0.392,0.558c0.26,0.121 0.659,0.242 1.195,0.36c0.556,0.132 1.012,0.264 1.367,0.396c0.351,0.13 0.665,0.345 0.913,0.626c0.254,0.286 0.38,0.672 0.38,1.159c0,0.418 -0.116,0.799 -0.349,1.143c-0.233,0.344 -0.583,0.618 -1.049,0.819c-0.466,0.202 -1.033,0.303 -1.701,0.303c-0.578,-0 -1.136,-0.078 -1.675,-0.235Zm269.894,-3.658l1.546,-0l-0,2.964c-0.397,0.299 -0.856,0.529 -1.378,0.689c-0.522,0.16 -1.048,0.24 -1.576,0.24c-0.759,-0 -1.441,-0.162 -2.046,-0.485c-0.605,-0.324 -1.081,-0.773 -1.425,-1.347c-0.344,-0.574 -0.516,-1.223 -0.516,-1.946c-0,-0.724 0.172,-1.373 0.516,-1.947c0.344,-0.574 0.823,-1.023 1.435,-1.346c0.613,-0.324 1.302,-0.486 2.067,-0.486c0.64,0 1.221,0.108 1.743,0.324c0.522,0.216 0.96,0.529 1.315,0.939l-1.086,1.002c-0.521,-0.549 -1.151,-0.824 -1.889,-0.824c-0.465,-0 -0.88,0.097 -1.242,0.292c-0.354,0.188 -0.648,0.475 -0.845,0.825c-0.202,0.354 -0.303,0.761 -0.303,1.221c0,0.452 0.101,0.855 0.303,1.21c0.197,0.35 0.488,0.638 0.84,0.83c0.359,0.198 0.768,0.298 1.227,0.298c0.487,-0 0.925,-0.105 1.314,-0.314l0,-2.139Zm-47.461,3.403c-0.609,-0.328 -1.086,-0.778 -1.43,-1.352c-0.345,-0.574 -0.517,-1.22 -0.517,-1.936c0,-0.717 0.172,-1.362 0.517,-1.936c0.344,-0.574 0.821,-1.025 1.43,-1.352c0.608,-0.327 1.292,-0.491 2.051,-0.491c0.758,0 1.44,0.164 2.045,0.491c0.606,0.327 1.082,0.778 1.43,1.352c0.348,0.574 0.522,1.219 0.522,1.936c-0,0.716 -0.174,1.362 -0.522,1.936c-0.348,0.574 -0.824,1.024 -1.43,1.352c-0.605,0.326 -1.287,0.49 -2.045,0.49c-0.759,-0 -1.443,-0.164 -2.051,-0.49Zm-163.057,-0c-0.609,-0.328 -1.086,-0.778 -1.43,-1.352c-0.344,-0.574 -0.517,-1.22 -0.517,-1.936c0,-0.717 0.173,-1.362 0.517,-1.936c0.344,-0.574 0.821,-1.025 1.43,-1.352c0.609,-0.327 1.292,-0.491 2.051,-0.491c0.758,0 1.44,0.164 2.046,0.491c0.605,0.327 1.081,0.778 1.429,1.352c0.348,0.574 0.522,1.219 0.522,1.936c0,0.716 -0.174,1.362 -0.522,1.936c-0.348,0.574 -0.824,1.024 -1.429,1.352c-0.606,0.326 -1.288,0.49 -2.046,0.49c-0.759,-0 -1.442,-0.164 -2.051,-0.49Zm198.26,-0c-0.608,-0.328 -1.085,-0.778 -1.43,-1.352c-0.344,-0.574 -0.516,-1.22 -0.516,-1.936c-0,-0.717 0.172,-1.362 0.516,-1.936c0.345,-0.574 0.822,-1.025 1.43,-1.352c0.609,-0.327 1.293,-0.491 2.051,-0.491c0.758,0 1.441,0.164 2.046,0.491c0.606,0.327 1.082,0.778 1.43,1.352c0.347,0.574 0.522,1.219 0.522,1.936c-0,0.716 -0.175,1.362 -0.522,1.936c-0.348,0.574 -0.824,1.024 -1.43,1.352c-0.605,0.326 -1.288,0.49 -2.046,0.49c-0.758,-0 -1.442,-0.164 -2.051,-0.49Zm-14.987,-0c-0.609,-0.328 -1.086,-0.778 -1.43,-1.352c-0.344,-0.574 -0.517,-1.22 -0.517,-1.936c0,-0.717 0.173,-1.362 0.517,-1.936c0.344,-0.574 0.821,-1.025 1.43,-1.352c0.608,-0.327 1.292,-0.491 2.051,-0.491c0.758,0 1.44,0.164 2.045,0.491c0.606,0.327 1.082,0.778 1.43,1.352c0.348,0.574 0.522,1.219 0.522,1.936c0,0.716 -0.174,1.362 -0.522,1.936c-0.348,0.574 -0.824,1.024 -1.43,1.352c-0.605,0.326 -1.287,0.49 -2.045,0.49c-0.759,-0 -1.443,-0.164 -2.051,-0.49Zm-124.221,-0.376c-0.581,-0.578 -0.872,-1.402 -0.872,-2.474l0,-4.091l1.691,-0l0,4.028c0,1.309 0.543,1.963 1.628,1.963c0.529,-0 0.933,-0.159 1.211,-0.475c0.278,-0.317 0.418,-0.813 0.418,-1.488l-0,-4.028l1.67,-0l-0,4.091c-0,1.072 -0.291,1.896 -0.872,2.474c-0.581,0.577 -1.393,0.866 -2.437,0.866c-1.044,-0 -1.856,-0.289 -2.437,-0.866Zm167.619,-0c-0.581,-0.578 -0.872,-1.402 -0.872,-2.474l0,-4.091l1.691,-0l0,4.028c0,1.309 0.543,1.963 1.628,1.963c0.529,-0 0.933,-0.159 1.211,-0.475c0.278,-0.317 0.418,-0.813 0.418,-1.488l-0,-4.028l1.67,-0l-0,4.091c-0,1.072 -0.291,1.896 -0.872,2.474c-0.581,0.577 -1.393,0.866 -2.437,0.866c-1.044,-0 -1.856,-0.289 -2.437,-0.866Zm-264.463,-0c-0.581,-0.578 -0.872,-1.402 -0.872,-2.474l0,-4.091l1.691,-0l0,4.028c0,1.309 0.543,1.963 1.628,1.963c0.529,-0 0.932,-0.159 1.211,-0.475c0.278,-0.317 0.417,-0.813 0.417,-1.488l-0,-4.028l1.67,-0l0,4.091c0,1.072 -0.29,1.896 -0.871,2.474c-0.582,0.577 -1.394,0.866 -2.437,0.866c-1.045,-0 -1.856,-0.289 -2.438,-0.866l0.001,-0Zm70.799,-6.565l3.319,-0c0.793,-0 1.494,0.151 2.103,0.454c0.608,0.303 1.082,0.729 1.419,1.278c0.338,0.55 0.507,1.19 0.507,1.921c-0,0.73 -0.169,1.371 -0.507,1.92c-0.337,0.55 -0.811,0.976 -1.419,1.279c-0.609,0.303 -1.31,0.454 -2.103,0.454l-3.319,-0l-0,-7.306Zm110.705,5.74l-3.393,0l-0.647,1.566l-1.733,-0l3.257,-7.306l1.67,-0l3.267,7.306l-1.774,-0l-0.647,-1.566Zm-34.035,0l-3.393,0l-0.647,1.566l-1.733,-0l3.257,-7.306l1.67,-0l3.267,7.306l-1.774,-0l-0.647,-1.566Zm-89.111,0l-3.392,0l-0.647,1.566l-1.733,-0l3.257,-7.306l1.669,-0l3.268,7.306l-1.775,-0l-0.647,-1.566Zm-34.744,0l-3.393,0l-0.647,1.566l-1.733,-0l3.257,-7.306l1.67,-0l3.267,7.306l-1.775,-0l-0.646,-1.566Zm-27.45,0l-3.392,0l-0.647,1.566l-1.733,-0l3.257,-7.306l1.669,-0l3.267,7.306l-1.774,-0l-0.647,-1.566Zm218.352,-1.571c0.236,0.31 0.355,0.691 0.355,1.143c-0,0.641 -0.249,1.133 -0.747,1.477c-0.497,0.344 -1.222,0.517 -2.176,0.517l-3.778,-0l-0,-7.306l3.569,-0c0.891,-0 1.575,0.17 2.051,0.511c0.477,0.341 0.715,0.804 0.715,1.388c0,0.355 -0.085,0.672 -0.256,0.95c-0.17,0.279 -0.408,0.498 -0.714,0.658c0.417,0.132 0.744,0.353 0.981,0.662Zm-162.702,-4.169l-0,7.306l-1.388,-0l-3.643,-4.436l0,4.436l-1.67,-0l0,-7.306l1.399,-0l3.632,4.436l0,-4.436l1.67,-0Zm105.538,-0l0,7.306l-1.388,-0l-3.642,-4.436l-0,4.436l-1.67,-0l-0,-7.306l1.398,-0l3.633,4.436l-0,-4.436l1.669,-0Zm-167.346,5.949l0,1.357l-5.657,-0l0,-7.306l5.521,-0l0,1.357l-3.84,-0l-0,1.586l3.392,-0l-0,1.315l-3.392,0l-0,1.691l3.976,-0Zm27.063,-5.949l0,7.306l-1.388,-0l-3.643,-4.436l0,4.436l-1.669,-0l-0,-7.306l1.398,-0l3.632,4.436l-0,-4.436l1.67,-0Zm173.274,5.949l0,1.357l-5.656,-0l-0,-7.306l5.521,-0l-0,1.357l-3.841,-0l-0,1.586l3.392,0l-0,1.315l-3.392,0l-0,1.691l3.976,-0Zm-54.052,-5.949l1.69,-0l0,5.928l3.663,0l0,1.378l-5.353,-0l-0,-7.306Zm-6.304,-0l1.691,-0l-0,5.928l3.663,0l-0,1.378l-5.354,-0l-0,-7.306Zm-102.042,1.377l-2.338,0l-0,-1.377l6.366,-0l0,1.377l-2.338,0l0,5.929l-1.69,-0l-0,-5.929Zm188.21,-1.377l1.69,-0l0,7.306l-1.69,-0l-0,-7.306Zm35.266,-0l1.691,-0l-0,7.306l-1.691,-0l0,-7.306Zm-218.54,-0l1.691,-0l0,7.306l-1.691,-0l0,-7.306Zm93.682,-0l1.691,-0l0,7.306l-1.691,-0l0,-7.306Zm-1.346,5.949l0,1.357l-5.657,-0l0,-7.306l5.521,-0l0,1.357l-3.84,-0l-0,1.586l3.392,-0l-0,1.315l-3.392,0l-0,1.691l3.976,-0Zm-148.873,-0l-0,1.357l-5.657,-0l-0,-7.306l5.521,-0l-0,1.357l-3.84,-0l-0,1.586l3.391,0l0,1.315l-3.391,0l-0,1.691l3.976,-0Zm142.611,-5.949l-3.162,7.306l-1.671,-0l-3.151,-7.306l1.826,-0l2.223,5.218l2.255,-5.218l1.68,-0Zm-10.041,7.306l-1.409,-2.035l-1.555,-0l0,2.035l-1.69,-0l-0,-7.306l3.162,-0c0.647,-0 1.209,0.108 1.686,0.323c0.476,0.216 0.843,0.522 1.101,0.919c0.257,0.396 0.386,0.866 0.386,1.409c-0,0.543 -0.131,1.011 -0.392,1.404c-0.261,0.393 -0.631,0.694 -1.111,0.903l1.638,2.348l-1.816,-0Zm-141.243,-0l-1.409,-2.035l-1.555,-0l0,2.035l-1.691,-0l0,-7.306l3.163,-0c0.647,-0 1.209,0.108 1.685,0.323c0.477,0.216 0.844,0.522 1.101,0.919c0.257,0.396 0.386,0.866 0.386,1.409c0,0.543 -0.13,1.011 -0.391,1.404c-0.261,0.393 -0.631,0.694 -1.111,0.903l1.638,2.348l-1.816,-0Zm309.862,-1.357l0,1.357l-5.657,-0l-0,-7.306l5.521,-0l0,1.357l-3.84,-0l-0,1.586l3.391,-0l0,1.315l-3.391,0l-0,1.691l3.976,-0Zm-49.146,-5.949l1.69,-0l0,5.928l3.663,0l0,1.378l-5.353,-0l-0,-7.306Zm-32.042,7.306l-1.41,-2.035l-1.555,-0l0,2.035l-1.69,-0l-0,-7.306l3.162,-0c0.647,-0 1.209,0.108 1.686,0.323c0.476,0.216 0.843,0.522 1.101,0.919c0.257,0.396 0.386,0.866 0.386,1.409c0,0.543 -0.13,1.011 -0.391,1.404c-0.261,0.393 -0.632,0.694 -1.112,0.903l1.639,2.348l-1.816,-0Zm-111.268,-1.357l-0,1.357l-5.658,-0l0,-7.306l5.522,-0l-0,1.357l-3.841,-0l0,1.586l3.392,-0l-0,1.315l-3.392,0l0,1.691l3.977,-0Zm-23.535,-5.949l1.69,-0l0,5.928l3.663,0l0,1.378l-5.353,-0l-0,-7.306Zm110.85,5.949l0,1.357l-5.657,-0l0,-7.306l5.521,-0l0,1.357l-3.84,-0l-0,1.586l3.392,-0l-0,1.315l-3.392,0l-0,1.691l3.976,-0Zm40.438,-0.136c0.226,-0.146 0.34,-0.372 0.34,-0.678c-0,-0.605 -0.45,-0.908 -1.347,-0.908l-1.973,-0l0,1.805l1.973,0c0.446,0 0.781,-0.073 1.007,-0.219Zm11.455,-0.12c0.344,-0.195 0.628,-0.482 0.819,-0.83c0.199,-0.354 0.298,-0.758 0.298,-1.21c-0,-0.452 -0.099,-0.856 -0.298,-1.211c-0.191,-0.347 -0.475,-0.634 -0.819,-0.829c-0.348,-0.199 -0.738,-0.298 -1.169,-0.298c-0.432,0 -0.821,0.099 -1.17,0.298c-0.344,0.195 -0.628,0.482 -0.818,0.829c-0.199,0.355 -0.298,0.759 -0.298,1.211c0,0.452 0.099,0.856 0.298,1.21c0.19,0.348 0.474,0.635 0.818,0.83c0.349,0.199 0.738,0.298 1.17,0.298c0.431,-0 0.821,-0.099 1.169,-0.298Zm-20.216,0c0.344,-0.195 0.628,-0.482 0.819,-0.83c0.198,-0.354 0.297,-0.758 0.297,-1.21c0,-0.452 -0.099,-0.856 -0.297,-1.211c-0.191,-0.347 -0.475,-0.634 -0.819,-0.829c-0.349,-0.199 -0.738,-0.298 -1.169,-0.298c-0.432,0 -0.822,0.099 -1.17,0.298c-0.344,0.195 -0.628,0.482 -0.819,0.829c-0.198,0.355 -0.297,0.759 -0.297,1.211c-0,0.452 0.099,0.856 0.297,1.21c0.191,0.348 0.475,0.635 0.819,0.83c0.348,0.199 0.738,0.298 1.17,0.298c0.431,-0 0.82,-0.099 1.169,-0.298Zm35.203,0c0.345,-0.195 0.629,-0.482 0.819,-0.83c0.199,-0.354 0.298,-0.758 0.298,-1.21c-0,-0.452 -0.099,-0.856 -0.298,-1.211c-0.19,-0.347 -0.474,-0.634 -0.819,-0.829c-0.348,-0.199 -0.737,-0.298 -1.169,-0.298c-0.431,0 -0.821,0.099 -1.169,0.298c-0.344,0.195 -0.628,0.482 -0.819,0.829c-0.198,0.355 -0.298,0.759 -0.298,1.211c0,0.452 0.1,0.856 0.298,1.21c0.191,0.348 0.475,0.635 0.819,0.83c0.348,0.199 0.738,0.298 1.169,0.298c0.432,-0 0.821,-0.099 1.169,-0.298Zm17.122,-0.83c0.191,0.348 0.474,0.635 0.819,0.83c0.348,0.199 0.738,0.298 1.169,0.298c0.432,-0 0.821,-0.099 1.169,-0.298c0.345,-0.195 0.628,-0.482 0.82,-0.83c0.198,-0.354 0.297,-0.758 0.297,-1.21c0,-0.452 -0.099,-0.856 -0.297,-1.211c-0.191,-0.347 -0.475,-0.634 -0.82,-0.83c-0.348,-0.198 -0.737,-0.297 -1.169,-0.297c-0.431,-0 -0.821,0.099 -1.169,0.297c-0.345,0.195 -0.628,0.483 -0.819,0.83c-0.198,0.355 -0.297,0.759 -0.297,1.211c-0,0.452 0.099,0.856 0.297,1.21Zm-215.382,0.83c0.345,-0.195 0.628,-0.482 0.819,-0.83c0.198,-0.354 0.297,-0.758 0.297,-1.21c0,-0.452 -0.099,-0.856 -0.297,-1.211c-0.191,-0.347 -0.474,-0.634 -0.819,-0.829c-0.349,-0.199 -0.738,-0.298 -1.169,-0.298c-0.432,0 -0.821,0.099 -1.169,0.298c-0.345,0.195 -0.629,0.482 -0.82,0.829c-0.198,0.355 -0.297,0.759 -0.297,1.211c-0,0.452 0.099,0.856 0.297,1.21c0.191,0.348 0.475,0.635 0.82,0.83c0.348,0.199 0.737,0.298 1.169,0.298c0.431,-0 0.82,-0.099 1.169,-0.298Zm33.022,0.224c0.731,0 1.314,-0.203 1.748,-0.61c0.435,-0.407 0.653,-0.959 0.653,-1.655c-0,-0.695 -0.218,-1.247 -0.653,-1.654c-0.434,-0.407 -1.017,-0.61 -1.748,-0.61l-1.545,-0l0,4.529l1.545,0Zm-78.403,-1.461l-1.158,-2.797l-1.158,2.797l2.316,0Zm62.195,0l-1.159,-2.797l-1.158,2.797l2.317,0Zm89.11,0l-1.158,-2.797l-1.159,2.797l2.317,0Zm-123.855,0l-1.159,-2.797l-1.158,2.797l2.317,0Zm157.89,0l-1.158,-2.797l-1.159,2.797l2.317,0Zm-213.728,-2.75c-0.264,-0.219 -0.65,-0.328 -1.158,-0.328l-1.378,-0l0,2.546l1.378,0c0.508,0 0.894,-0.111 1.158,-0.334c0.265,-0.223 0.397,-0.536 0.397,-0.939c-0,-0.41 -0.132,-0.725 -0.397,-0.945Zm228.674,0c-0.264,-0.219 -0.651,-0.328 -1.158,-0.328l-1.379,-0l0,2.546l1.379,0c0.507,0 0.894,-0.111 1.158,-0.334c0.264,-0.223 0.397,-0.536 0.397,-0.939c-0,-0.41 -0.133,-0.725 -0.397,-0.945Zm-87.43,0c-0.265,-0.219 -0.651,-0.328 -1.159,-0.328l-1.378,-0l0,2.546l1.378,0c0.508,0 0.894,-0.111 1.159,-0.334c0.264,-0.223 0.396,-0.536 0.396,-0.939c0,-0.41 -0.132,-0.725 -0.396,-0.945Zm101.363,-0.433l0,1.722l1.681,0c0.417,0 0.734,-0.073 0.949,-0.219c0.216,-0.146 0.324,-0.362 0.324,-0.647c-0,-0.285 -0.108,-0.499 -0.324,-0.642c-0.215,-0.143 -0.532,-0.214 -0.949,-0.214l-1.681,0Zm-235.938,-3.371l1.754,-0l-1.89,1.503l-1.273,-0l1.409,-1.503Zm213.999,-0l1.754,-0l-1.889,1.503l-1.273,-0l1.408,-1.503Zm-5.724,-7.964c-3.925,-1.14 -7.078,-2.621 -9.458,-4.444l4.179,-9.268c2.278,1.672 4.987,3.014 8.128,4.026c3.139,1.014 6.279,1.52 9.419,1.52c3.494,-0 6.077,-0.519 7.749,-1.557c1.671,-1.038 2.506,-2.418 2.506,-4.141c0,-1.265 -0.493,-2.316 -1.481,-3.152c-0.987,-0.836 -2.254,-1.506 -3.798,-2.013c-1.546,-0.506 -3.634,-1.064 -6.267,-1.671c-4.052,-0.962 -7.369,-1.924 -9.952,-2.887c-2.583,-0.962 -4.798,-2.507 -6.647,-4.634c-1.849,-2.127 -2.772,-4.963 -2.772,-8.508c-0,-3.089 0.836,-5.887 2.506,-8.394c1.672,-2.507 4.19,-4.494 7.559,-5.964c3.368,-1.468 7.483,-2.203 12.344,-2.203c3.393,0 6.71,0.406 9.952,1.216c3.24,0.811 6.077,1.975 8.508,3.494l-3.798,9.344c-4.913,-2.784 -9.826,-4.178 -14.737,-4.178c-3.445,-0 -5.99,0.558 -7.635,1.671c-1.646,1.115 -2.469,2.583 -2.469,4.406c0,1.823 0.95,3.179 2.849,4.064c1.899,0.887 4.797,1.76 8.698,2.621c4.051,0.963 7.368,1.925 9.951,2.887c2.583,0.962 4.798,2.482 6.648,4.558c1.847,2.077 2.772,4.887 2.772,8.432c0,3.039 -0.849,5.811 -2.545,8.318c-1.697,2.507 -4.242,4.495 -7.634,5.963c-3.394,1.468 -7.521,2.203 -12.383,2.203c-4.204,0 -8.268,-0.569 -12.192,-1.709Zm-88.612,0.797l-10.256,-14.813l-11.319,0l0,14.813l-12.306,0l0,-53.175l23.018,-0c4.71,-0 8.799,0.786 12.268,2.355c3.468,1.57 6.14,3.798 8.014,6.685c1.873,2.886 2.811,6.305 2.811,10.255c-0,3.95 -0.95,7.357 -2.849,10.218c-1.899,2.861 -4.596,5.051 -8.09,6.57l11.927,17.092l-13.218,0Zm70.722,-53.175l0,53.175l-10.103,0l-26.512,-32.285l0,32.285l-12.154,0l-0,-53.175l10.179,-0l26.436,32.285l-0,-32.285l12.154,-0Zm96.095,41.781l-24.689,-0l-4.71,11.394l-12.61,0l23.701,-53.175l12.155,-0l23.777,53.175l-12.914,0l-4.71,-11.394Zm-3.874,-9.344l-8.433,-20.358l-8.432,20.358l16.865,0Zm-166.058,-20.017c-1.925,-1.595 -4.736,-2.393 -8.432,-2.393l-10.028,0l0,18.536l10.028,-0c3.696,-0 6.507,-0.81 8.432,-2.431c1.924,-1.62 2.887,-3.899 2.887,-6.837c-0,-2.987 -0.963,-5.279 -2.887,-6.875l0,0Z" style="fill:#170538;fill-rule:nonzero;"/>
        <path d="M9.109,64.284c-7.056,-2.486 -10.761,-10.221 -8.275,-17.278c2.486,-7.056 10.221,-10.762 17.278,-8.275c7.055,2.485 10.761,10.221 8.275,17.277c-2.486,7.057 -10.222,10.762 -17.278,8.276m11.457,-39.447c-5.241,-1.846 -7.993,-7.592 -6.147,-12.834c1.847,-5.241 7.593,-7.993 12.834,-6.147c5.241,1.847 7.993,7.593 6.147,12.833c-1.847,5.242 -7.593,7.994 -12.834,6.148m24.985,8.025c-4.87,-1.716 -7.426,-7.054 -5.71,-11.922c1.715,-4.87 7.053,-7.426 11.922,-5.711c4.869,1.716 7.425,7.053 5.71,11.923c-1.715,4.868 -7.052,7.425 -11.922,5.71m-0.427,32.274c-3.62,-1.275 -5.521,-5.243 -4.246,-8.863c1.276,-3.62 5.244,-5.521 8.864,-4.246c3.62,1.276 5.52,5.244 4.246,8.864c-1.276,3.62 -5.244,5.521 -8.864,4.245m-7.843,-19.579c-2.396,-0.844 -3.654,-3.471 -2.81,-5.868c0.844,-2.396 3.471,-3.654 5.867,-2.81c2.396,0.844 3.655,3.471 2.811,5.868c-0.844,2.396 -3.472,3.654 -5.868,2.81m35.305,-12.5c0,2.131 -1.728,3.86 -3.859,3.86c-2.132,-0 -3.859,-1.729 -3.859,-3.86c-0,-2.131 1.727,-3.859 3.859,-3.859c2.131,-0 3.859,1.728 3.859,3.859m-12.765,-22.561c0,1.303 -1.072,2.375 -2.374,2.375c-0.001,-0 -0.001,-0 -0.001,-0c-1.302,-0 -2.374,-1.072 -2.374,-2.375c-0,-1.303 1.072,-2.375 2.375,-2.375c1.302,0 2.374,1.072 2.374,2.375m0.891,28.201c-0,1.804 -1.462,3.266 -3.266,3.266c-1.803,-0 -3.265,-1.462 -3.265,-3.266c-0,-1.803 1.462,-3.265 3.265,-3.265c1.804,-0 3.266,1.462 3.266,3.265m20.186,-19.889c0,1.303 -1.072,2.375 -2.374,2.375c-0.001,0 -0.001,0 -0.001,0c-1.303,0 -2.375,-1.072 -2.375,-2.375c-0,-1.303 1.072,-2.375 2.375,-2.375c1.303,-0 2.375,1.072 2.375,2.375m8.906,18.999c-0,1.639 -1.329,2.968 -2.969,2.968c-1.639,0 -2.968,-1.329 -2.968,-2.968c-0,-1.64 1.329,-2.968 2.968,-2.968c1.64,-0 2.969,1.328 2.969,2.968m-14.843,5.937c-0,0.977 -0.804,1.781 -1.781,1.781c-0.977,0 -1.781,-0.804 -1.781,-1.781c-0,-0.977 0.804,-1.781 1.781,-1.781c0.977,-0 1.781,0.804 1.781,1.781m-6.531,-24.342c-0,0.977 -0.804,1.781 -1.781,1.781c-0.977,-0 -1.781,-0.804 -1.781,-1.781c-0,-0.977 0.804,-1.781 1.781,-1.781c0.977,-0 1.781,0.804 1.781,1.781" style="fill:#e30512;fill-rule:nonzero;"/>
    </g>
</svg>